<svg width="56" height="56" viewBox="0 0 56 56" fill="none" xmlns="http://www.w3.org/2000/svg">
<path fill-rule="evenodd" clip-rule="evenodd" d="M29.75 7C30.2141 7 30.6593 7.18437 30.9874 7.51256C31.3156 7.84075 31.5 8.28587 31.5 8.75V47.25C31.5 47.7141 31.3156 48.1592 30.9874 48.4874C30.6593 48.8156 30.2141 49 29.75 49C29.2859 49 28.8407 48.8156 28.5126 48.4874C28.1844 48.1592 28 47.7141 28 47.25V8.75C28 8.28587 28.1844 7.84075 28.5126 7.51256C28.8407 7.18437 29.2859 7 29.75 7ZM22.75 14C23.2141 14 23.6592 14.1844 23.9874 14.5126C24.3156 14.8408 24.5 15.2859 24.5 15.75V40.25C24.5 40.7141 24.3156 41.1592 23.9874 41.4874C23.6592 41.8156 23.2141 42 22.75 42C22.2859 42 21.8408 41.8156 21.5126 41.4874C21.1844 41.1592 21 40.7141 21 40.25V15.75C21 15.2859 21.1844 14.8408 21.5126 14.5126C21.8408 14.1844 22.2859 14 22.75 14ZM36.75 14C37.2141 14 37.6593 14.1844 37.9874 14.5126C38.3156 14.8408 38.5 15.2859 38.5 15.75V40.25C38.5 40.7141 38.3156 41.1592 37.9874 41.4874C37.6593 41.8156 37.2141 42 36.75 42C36.2859 42 35.8407 41.8156 35.5126 41.4874C35.1844 41.1592 35 40.7141 35 40.25V15.75C35 15.2859 35.1844 14.8408 35.5126 14.5126C35.8407 14.1844 36.2859 14 36.75 14ZM15.75 19.25C16.2141 19.25 16.6592 19.4344 16.9874 19.7626C17.3156 20.0908 17.5 20.5359 17.5 21V35C17.5 35.4641 17.3156 35.9093 16.9874 36.2374C16.6592 36.5656 16.2141 36.75 15.75 36.75C15.2859 36.75 14.8408 36.5656 14.5126 36.2374C14.1844 35.9093 14 35.4641 14 35V21C14 20.5359 14.1844 20.0908 14.5126 19.7626C14.8408 19.4344 15.2859 19.25 15.75 19.25ZM43.75 19.25C44.2141 19.25 44.6592 19.4344 44.9874 19.7626C45.3156 20.0908 45.5 20.5359 45.5 21V35C45.5 35.4641 45.3156 35.9093 44.9874 36.2374C44.6592 36.5656 44.2141 36.75 43.75 36.75C43.2859 36.75 42.8408 36.5656 42.5126 36.2374C42.1844 35.9093 42 35.4641 42 35V21C42 20.5359 42.1844 20.0908 42.5126 19.7626C42.8408 19.4344 43.2859 19.25 43.75 19.25ZM8.75 22.75C9.21413 22.75 9.65925 22.9344 9.98744 23.2626C10.3156 23.5908 10.5 24.0359 10.5 24.5V31.5C10.5 31.9641 10.3156 32.4093 9.98744 32.7374C9.65925 33.0656 9.21413 33.25 8.75 33.25C8.28587 33.25 7.84075 33.0656 7.51256 32.7374C7.18437 32.4093 7 31.9641 7 31.5V24.5C7 24.0359 7.18437 23.5908 7.51256 23.2626C7.84075 22.9344 8.28587 22.75 8.75 22.75ZM50.75 22.75C51.2141 22.75 51.6592 22.9344 51.9874 23.2626C52.3156 23.5908 52.5 24.0359 52.5 24.5V31.5C52.5 31.9641 52.3156 32.4093 51.9874 32.7374C51.6592 33.0656 51.2141 33.25 50.75 33.25C50.2859 33.25 49.8408 33.0656 49.5126 32.7374C49.1844 32.4093 49 31.9641 49 31.5V24.5C49 24.0359 49.1844 23.5908 49.5126 23.2626C49.8408 22.9344 50.2859 22.75 50.75 22.75Z" fill="#EFB810"/>
</svg>
