<svg width="30" height="29" viewBox="0 0 30 29" fill="none" xmlns="http://www.w3.org/2000/svg">
<path d="M15.896 0.890668L19.9747 9.15333L29.092 10.4773C29.2769 10.504 29.4506 10.5818 29.5935 10.7021C29.7364 10.8225 29.8428 10.9804 29.9005 11.158C29.9582 11.3357 29.965 11.526 29.9202 11.7073C29.8753 11.8886 29.7806 12.0538 29.6467 12.184L23.0493 18.6147L24.6067 27.6973C24.638 27.8811 24.6173 28.07 24.5469 28.2427C24.4765 28.4154 24.3593 28.5649 24.2084 28.6745C24.0575 28.784 23.879 28.8492 23.6931 28.8627C23.5071 28.8761 23.3211 28.8373 23.156 28.7507L15 24.4627L6.84533 28.7507C6.68013 28.8375 6.49395 28.8763 6.30784 28.8628C6.12172 28.8493 5.9431 28.784 5.79216 28.6743C5.64123 28.5645 5.52401 28.4147 5.45377 28.2419C5.38352 28.069 5.36304 27.8799 5.39466 27.696L6.95199 18.6147L0.35466 12.184C0.220635 12.0539 0.125771 11.8889 0.0808417 11.7076C0.0359121 11.5263 0.0427177 11.3361 0.100485 11.1585C0.158253 10.9809 0.264668 10.823 0.407644 10.7028C0.55062 10.5827 0.724428 10.505 0.909327 10.4787L10.0267 9.15333L14.1027 0.890668C14.1853 0.723379 14.313 0.582532 14.4715 0.484049C14.6299 0.385566 14.8128 0.333374 14.9993 0.333374C15.1859 0.333374 15.3687 0.385566 15.5272 0.484049C15.6857 0.582532 15.8134 0.723379 15.896 0.890668Z" fill="#EFB810"/>
</svg>
