<svg width="32" height="26" viewBox="0 0 32 26" fill="none" xmlns="http://www.w3.org/2000/svg">
<path d="M28.9375 9H19.7437L16.95 0.6625C16.8125 0.25625 16.4312 0 16 0C15.5688 0 15.1875 0.25625 15.05 0.6625L12.2563 9H3C2.45 9 2 9.45 2 10C2 10.0562 2.00625 10.1187 2.01875 10.1687C2.03125 10.3875 2.13125 10.6313 2.4375 10.875L9.99375 16.2L7.09375 24.6313C6.95 25.0375 7.09375 25.4937 7.4375 25.7563C7.61875 25.8875 7.7875 26 8 26C8.20625 26 8.45 25.8937 8.625 25.775L16 20.5187L23.375 25.775C23.55 25.9 23.7938 26 24 26C24.2125 26 24.3813 25.8938 24.5562 25.7563C24.9062 25.4937 25.0437 25.0438 24.9 24.6313L22 16.2L29.4937 10.825L29.675 10.6687C29.8375 10.4937 30 10.2563 30 10C30 9.45 29.4875 9 28.9375 9ZM20.9875 14.7812C20.3625 15.2312 20.1 16.0437 20.35 16.7687L22.2313 22.25C22.3125 22.4813 22.05 22.675 21.85 22.5375L17.0125 19.0875C16.7063 18.8687 16.35 18.7625 15.9937 18.7625C15.6375 18.7625 15.2812 18.8687 14.9812 19.0875L10.1438 22.5312C9.94375 22.675 9.68125 22.475 9.7625 22.2437L11.6438 16.7625C11.8938 16.025 11.6313 15.2125 11 14.7625L5.9375 11.1938C5.7375 11.0563 5.8375 10.7375 6.08125 10.7375H12.25C13 10.7375 13.6687 10.2562 13.9062 9.54375L15.7563 4.03125C15.8313 3.80625 16.1563 3.80625 16.2313 4.03125L18.0812 9.54375C18.3187 10.2562 18.9875 10.7375 19.7375 10.7375H25.8188C26.0625 10.7375 26.1625 11.05 25.9625 11.1875L20.9875 14.7812Z" fill="#F2F2F2"/>
</svg>
